<svg width="90" height="90" viewBox="0 0 90 90" fill="none" xmlns="http://www.w3.org/2000/svg">
<path d="M45 0C39.5127 0 35 4.51269 35 10C35 15.4873 39.5127 20 45 20C50.4873 20 55 15.4873 55 10C55 4.51269 50.4873 0 45 0ZM45 6C47.2447 6 49 7.75533 49 10C49 12.2447 47.2447 14 45 14C42.7553 14 41 12.2447 41 10C41 7.75533 42.7553 6 45 6ZM20 10C14.5127 10 10 14.5127 10 20C10 25.4873 14.5127 30 20 30C25.4873 30 30 25.4873 30 20C30 14.5127 25.4873 10 20 10ZM70 10C64.5127 10 60 14.5127 60 20C60 25.4873 64.5127 30 70 30C75.4873 30 80 25.4873 80 20C80 14.5127 75.4873 10 70 10ZM20 16C22.2447 16 24 17.7553 24 20C24 22.2447 22.2447 24 20 24C17.7553 24 16 22.2447 16 20C16 17.7553 17.7553 16 20 16ZM70 16C72.2447 16 74 17.7553 74 20C74 22.2447 72.2447 24 70 24C67.7553 24 66 22.2447 66 20C66 17.7553 67.7553 16 70 16ZM10 35C4.51269 35 0 39.5127 0 45C0 50.4873 4.51269 55 10 55C15.4873 55 20 50.4873 20 45C20 39.5127 15.4873 35 10 35ZM45 35C39.5127 35 35 39.5127 35 45C35 50.4873 39.5127 55 45 55C50.4873 55 55 50.4873 55 45C55 39.5127 50.4873 35 45 35ZM80 35C74.5127 35 70 39.5127 70 45C70 50.4873 74.5127 55 80 55C85.4873 55 90 50.4873 90 45C90 39.5127 85.4873 35 80 35ZM10 41C12.2447 41 14 42.7553 14 45C14 47.2447 12.2447 49 10 49C7.75533 49 6 47.2447 6 45C6 42.7553 7.75533 41 10 41ZM45 41C47.2447 41 49 42.7553 49 45C49 47.2447 47.2447 49 45 49C42.7553 49 41 47.2447 41 45C41 42.7553 42.7553 41 45 41ZM80 41C82.2447 41 84 42.7553 84 45C84 47.2447 82.2447 49 80 49C77.7553 49 76 47.2447 76 45C76 42.7553 77.7553 41 80 41ZM20 60C14.5127 60 10 64.5127 10 70C10 75.4873 14.5127 80 20 80C25.4873 80 30 75.4873 30 70C30 64.5127 25.4873 60 20 60ZM70 60C64.5127 60 60 64.5127 60 70C60 75.4873 64.5127 80 70 80C75.4873 80 80 75.4873 80 70C80 64.5127 75.4873 60 70 60ZM20 66C22.2447 66 24 67.7553 24 70C24 72.2447 22.2447 74 20 74C17.7553 74 16 72.2447 16 70C16 67.7553 17.7553 66 20 66ZM70 66C72.2447 66 74 67.7553 74 70C74 72.2447 72.2447 74 70 74C67.7553 74 66 72.2447 66 70C66 67.7553 67.7553 66 70 66ZM45 70C39.5127 70 35 74.5127 35 80C35 85.4873 39.5127 90 45 90C50.4873 90 55 85.4873 55 80C55 74.5127 50.4873 70 45 70ZM45 76C47.2447 76 49 77.7553 49 80C49 82.2447 47.2447 84 45 84C42.7553 84 41 82.2447 41 80C41 77.7553 42.7553 76 45 76Z" fill="#4D5362"/>
</svg>
